<?xml version="1.0" encoding="UTF-8" standalone="no"?>
<svg
   version="1.1"
   id="Layer_1"
   x="0px"
   y="0px"
   width="150"
   viewBox="0 0 150 150"
   enable-background="new 0 0 440 440"
   xml:space="preserve"
   sodipodi:docname="request-tracker-small-logo.svg"
   inkscape:version="1.1.2 (0a00cf5339, 2022-02-04)"
   height="150"
   xmlns:inkscape="http://www.inkscape.org/namespaces/inkscape"
   xmlns:sodipodi="http://sodipodi.sourceforge.net/DTD/sodipodi-0.dtd"
   xmlns="http://www.w3.org/2000/svg"
   xmlns:svg="http://www.w3.org/2000/svg"><defs
   id="defs87" /><sodipodi:namedview
   id="namedview85"
   pagecolor="#ffffff"
   bordercolor="#666666"
   borderopacity="1.0"
   inkscape:pageshadow="2"
   inkscape:pageopacity="0"
   inkscape:pagecheckerboard="true"
   showgrid="false"
   inkscape:zoom="3.6681818"
   inkscape:cx="96.641884"
   inkscape:cy="99.36803"
   inkscape:window-width="1920"
   inkscape:window-height="1016"
   inkscape:window-x="0"
   inkscape:window-y="0"
   inkscape:window-maximized="1"
   inkscape:current-layer="Layer_1" />






<path
   fill="#b0b0b0"
   opacity="1"
   stroke="none"
   d="m 78.68592,37.441538 c -5.32e-4,31.159376 -5.87e-4,62.149312 -0.0016,93.139272 -8.6e-5,2.49888 -0.16124,2.67712 -2.673056,2.74869 -1.127359,0.0321 -2.258034,0.0293 -3.38479,-0.0168 -2.041535,-0.0833 -2.294145,-0.36593 -2.294262,-2.43163 -0.0012,-22.01471 -5.87e-4,-44.02944 -5.87e-4,-66.044153 7.7e-5,-15.353856 1.88e-4,-30.70771 0.0012,-46.061564 1.23e-4,-2.337037 0.216436,-2.558552 2.595331,-2.678436 5.758623,-0.290209 5.757677,-0.290209 5.756894,5.426229 -5.86e-4,5.249646 7.83e-4,10.499289 0.0016,15.918363 z"
   id="path74"
   style="stroke-width:0.338858" /><path
   fill="#5683c5"
   opacity="1"
   stroke="none"
   d="M 19.580579,90.79216 C 15.004373,94.54559 10.523103,98.22415 5.8932792,102.02469 4.6001711,100.47362 3.389122,99.021 2,97.35478 10.850646,90.06079 19.614282,82.838534 28.659555,75.384144 19.712706,68.014233 10.917665,60.76936 2.0077483,53.429857 3.3321837,51.827842 4.5400928,50.36677 5.8720794,48.75562 c 2.1051886,1.708223 4.1129768,3.317702 6.0995866,4.95291 7.445931,6.128861 14.88608,12.264745 22.325643,18.401344 1.594237,1.31502 1.585504,5.23871 -0.0026,6.54833 -4.873611,4.01904 -9.746217,8.039306 -14.714149,12.133956 z"
   id="path76"
   style="stroke-width:0.338858" /><path
   fill="#5683c5"
   opacity="1"
   stroke="none"
   d="M 46.297955,71.558464 C 38.942104,65.497621 31.676888,59.515724 24.284914,53.429463 c 1.313606,-1.604215 2.512248,-3.068032 3.836774,-4.685584 2.206636,1.787617 4.310515,3.471044 6.391869,5.181891 7.194536,5.913804 14.385508,11.831955 21.568414,17.759874 2.315553,1.91098 2.329688,5.48218 0.05831,7.35116 -8.934527,7.351716 -17.868639,14.703926 -26.806777,22.051256 -0.340976,0.28028 -0.721881,0.51199 -1.233503,0.87115 -1.252789,-1.50817 -2.460276,-2.96182 -3.825382,-4.60523 8.888856,-7.32971 17.656864,-14.559756 26.634582,-21.962746 -1.609084,-1.33616 -3.064852,-2.54499 -4.611249,-3.83277 z"
   id="path78"
   style="stroke-width:0.338858" /><path
   fill="#5683c5"
   opacity="1"
   stroke="none"
   d="m 138.21709,53.55798 c 1.97035,-1.602156 3.845,-3.130351 5.90365,-4.808539 1.29776,1.567432 2.53296,3.059296 3.87926,4.685344 -8.89758,7.322425 -17.66776,14.539995 -26.66379,21.943449 8.9854,7.39972 17.75223,14.619446 26.64792,21.945286 -1.29952,1.59436 -2.49696,3.06351 -3.82695,4.69525 -2.21715,-1.80284 -4.35078,-3.52027 -6.46564,-5.26052 -7.35951,-6.05595 -14.71301,-12.11919 -22.06754,-18.181146 -1.48067,-1.22044 -1.45534,-5.18301 0.0519,-6.42758 7.47916,-6.175748 14.96318,-12.345625 22.54119,-18.591544 z"
   id="path80"
   style="stroke-width:0.338858" /><path
   fill="#5683c6"
   opacity="1"
   stroke="none"
   d="m 112.00568,56.834744 c 3.26564,-2.692515 6.43917,-5.30759 9.80074,-8.077622 1.3029,1.530002 2.52418,2.964135 3.94394,4.631339 -8.88082,7.323201 -17.67765,14.577142 -26.669869,21.992193 8.958799,7.38268 17.726109,14.607556 26.628899,21.944096 -1.32133,1.61568 -2.52004,3.08144 -3.83887,4.69407 -2.5526,-2.08418 -4.99264,-4.06662 -7.4221,-6.06194 -6.80196,-5.58639 -13.5954,-11.18317 -20.401048,-16.765076 -2.48837,-2.04092 -2.511441,-5.55981 -0.0586,-7.56622 5.983282,-4.894261 11.950898,-9.807686 18.016918,-14.79084 z"
   id="path82"
   style="stroke-width:0.338858" /></svg>
