<?xml version="1.0" encoding="utf-8"?>
<!-- Generator: Adobe Illustrator 19.2.1, SVG Export Plug-In . SVG Version: 6.00 Build 0)  -->
<svg version="1.1" id="Layer_1" xmlns="http://www.w3.org/2000/svg" xmlns:xlink="http://www.w3.org/1999/xlink" x="0px" y="0px"
	 viewBox="0 0 858 144" style="enable-background:new 0 0 858 144;" xml:space="preserve">
<style type="text/css">
	.st0{fill:#006699;}
	.st1{fill:#666667;}
</style>
<g>
	<path class="st0" d="M170.2,45.8v20.5c0,1.1,0.2,1.9,0.6,2.4c0.4,0.5,1.1,0.9,2.1,1.2v1.4h-11.8v-1.4c1-0.2,1.7-0.6,2.1-1.1
		c0.4-0.5,0.5-1.3,0.5-2.4V19.6c0-1.1-0.2-1.9-0.5-2.4c-0.4-0.5-1.1-0.9-2.1-1.1v-1.4h31c3.8,0,7,0.2,9.5,0.5
		c2.6,0.3,4.9,1.2,6.9,2.5c2.1,1.3,3.7,3.1,4.9,5.3c1.2,2.2,1.7,4.7,1.7,7.3c0,3-0.7,5.6-2.1,7.8c-1.4,2.2-3.3,3.9-5.8,5.2
		c-2.4,1.2-5.1,2-8.1,2.2l14.3,22.3c0.8,1.4,2.1,2,3.7,2v1.4h-13.1v-1.4c1.3-0.2,2-0.5,2-1c0-0.6-0.5-1.5-1.5-2.8l-12.8-20.3H170.2z
		 M170.2,40.4h22.9c2.6,0,4.7-0.1,6.5-0.3c1.8-0.2,3.3-0.7,4.8-1.5c1.4-0.8,2.4-1.9,3.2-3.4c0.7-1.5,1.1-3.1,1.1-4.9
		c0-1.8-0.4-3.4-1.1-4.9c-0.8-1.5-1.8-2.7-3.3-3.5c-1.6-0.8-3.3-1.3-5.1-1.5c-1.8-0.2-4-0.3-6.6-0.3h-22.3V40.4z"/>
	<path class="st0" d="M251,44.7v21h36.2c1.1,0,1.9-0.2,2.4-0.5c0.5-0.4,0.9-1.1,1.1-2.1h1.4v10.7h-1.4c-0.2-1-0.6-1.7-1.1-2.1
		c-0.5-0.4-1.3-0.5-2.4-0.5h-45.4v-1.4c1-0.2,1.7-0.6,2.1-1.1c0.4-0.5,0.5-1.3,0.5-2.4V19.6c0-1.1-0.2-1.9-0.5-2.4
		c-0.4-0.5-1.1-0.9-2.1-1.1v-1.4h44.9c1.1,0,1.9-0.2,2.4-0.6c0.5-0.4,0.9-1.1,1.2-2.1h1.3v10.7h-1.3c-0.2-1-0.6-1.7-1.1-2.1
		c-0.5-0.4-1.3-0.6-2.4-0.6H251v19.4h23.4c1.1,0,1.9-0.2,2.4-0.6c0.5-0.4,0.9-1.1,1.2-2.1h1.3v10.7h-1.3c-0.2-1-0.6-1.7-1.1-2.1
		c-0.5-0.4-1.3-0.6-2.4-0.6H251z"/>
	<path class="st0" d="M361.8,69.8c-4.4,1.5-9.2,2.3-14.4,2.3c-10,0-18-2.6-24-7.8c-2.1-1.8-3.8-3.8-5.3-6.1
		c-1.5-2.3-2.6-4.7-3.4-7.4c-0.8-2.6-1.2-5.3-1.2-8c0-2,0.2-4,0.7-6.1c0.5-2,1.1-3.9,1.9-5.8c0.8-1.8,1.9-3.6,3.1-5.2
		c1.2-1.7,2.6-3.1,4.1-4.4c6-5.1,14-7.7,24-7.7c10,0,17.9,2.6,23.9,7.7c3.1,2.6,5.5,5.8,7.2,9.6c1.7,3.8,2.6,7.7,2.6,11.8
		c0,3.2-0.6,6.4-1.7,9.5s-2.7,5.9-4.7,8.4c-2.1,2.5-4.4,4.6-7.2,6.3l5.9,4.5c0.6,0.3,1.1,0.5,1.5,0.5c0.4-0.1,1-0.5,1.8-1.3l1.1,0.8
		l-7.4,9.2l-1-1.1c0.6-1.1,0.9-1.7,0.9-2c0-0.7-0.3-1.3-0.8-1.6L361.8,69.8z M356.3,65.5l-2.1-1.7c-2.5-1.9-4.7-2.8-6.6-2.8
		c-1.4,0-2.6,0.4-3.8,1.3l-0.8-1.2c2.6-1.7,5.3-2.6,8.1-2.6c3.5,0,7.3,1.5,11.4,4.6c3.8-2.2,6.7-5,8.8-8.5c2.1-3.5,3.1-7.4,3.1-11.8
		c0-6.6-2.3-12.1-6.8-16.5c-4.9-4.7-11.6-7-20.2-7c-8.7,0-15.4,2.3-20.3,7c-4.5,4.4-6.8,9.9-6.8,16.5c0,6.6,2.3,12.1,6.8,16.5
		c1.8,1.7,3.7,3.1,5.9,4.2c2.2,1.1,4.5,1.8,6.8,2.3c2.4,0.5,4.9,0.7,7.5,0.7C349.9,66.6,352.9,66.2,356.3,65.5z"/>
	<path class="st0" d="M406.3,16v-1.3h11.8V16c-1,0.2-1.7,0.6-2.1,1.2c-0.4,0.5-0.6,1.3-0.6,2.4v31.3c0,3.2,0.2,5.6,0.5,7.3
		c0.4,1.7,1.2,3.2,2.4,4.4c2.9,2.7,8.4,4,16.5,4c3.7,0,7.1-0.3,10.1-0.9c3-0.6,5.4-1.9,7.1-3.8c1.5-1.6,2.3-4.5,2.3-8.7v-2.3V19.6
		c0-1.1-0.2-1.9-0.6-2.4c-0.4-0.5-1.1-0.9-2.1-1.2v-1.3H463V16c-1,0.2-1.7,0.6-2.1,1.1c-0.4,0.5-0.6,1.3-0.6,2.4v32.6
		c0,3.5-0.4,6.4-1.1,8.8c-0.7,2.4-2.2,4.6-4.3,6.4c-4,3.3-10.7,4.9-20.3,4.9c-2.9,0-5.6-0.1-8.1-0.4c-2.5-0.3-4.9-0.8-7.3-1.7
		c-2.4-0.9-4.4-2.2-6.1-4c-1.7-1.8-2.8-3.8-3.4-6.1c-0.6-2.3-0.9-4.9-0.9-7.9V19.6c0-1.1-0.2-1.9-0.5-2.4
		C408,16.6,407.3,16.3,406.3,16z"/>
	<path class="st0" d="M499.1,44.7v21h36.2c1.1,0,1.9-0.2,2.4-0.5c0.5-0.4,0.9-1.1,1.1-2.1h1.4v10.7h-1.4c-0.2-1-0.6-1.7-1.1-2.1
		c-0.5-0.4-1.3-0.5-2.4-0.5H490v-1.4c1-0.2,1.7-0.6,2.1-1.1c0.4-0.5,0.5-1.3,0.5-2.4V19.6c0-1.1-0.2-1.9-0.5-2.4
		c-0.4-0.5-1.1-0.9-2.1-1.1v-1.4h44.9c1.1,0,1.9-0.2,2.4-0.6c0.5-0.4,0.9-1.1,1.2-2.1h1.3v10.7h-1.3c-0.2-1-0.6-1.7-1.1-2.1
		c-0.5-0.4-1.3-0.6-2.4-0.6h-35.7v19.4h23.4c1.1,0,1.9-0.2,2.4-0.6c0.5-0.4,0.9-1.1,1.2-2.1h1.3v10.7h-1.3c-0.2-1-0.6-1.7-1.1-2.1
		c-0.5-0.4-1.3-0.6-2.4-0.6H499.1z"/>
	<path class="st0" d="M620.1,18.2l-5.9,10.7l-1.2-0.7c0.5-0.9,0.7-1.6,0.7-2.2c0-0.9-1-1.8-3.1-2.7c-5.6-2.6-11.2-3.9-17-3.9
		c-5.5,0-10.1,0.9-13.9,2.8c-1.7,0.8-3.1,1.9-4.2,3.4c-1.1,1.4-1.7,3-1.7,4.7c0,1.5,0.4,2.8,1.2,4.1c0.8,1.3,1.9,2.2,3.3,2.8
		c1.9,0.8,3.9,1.3,5.9,1.5c1.2,0.1,4.3,0.3,9.3,0.6c6.2,0.1,10.8,0.4,13.8,0.8c4.2,0.7,7.5,2.3,10,4.7c2.4,2.4,3.6,5.7,3.6,9.9
		c0,1.5-0.3,3.1-0.8,4.6c-0.5,1.5-1.3,2.9-2.2,4.1s-2,2.4-3.3,3.4c-4.9,3.6-11.4,5.4-19.5,5.4c-8.3,0-15.8-1.8-22.7-5.4
		c-2.6-1.5-4.2-2.3-4.9-2.3c-0.4,0-1.1,0.5-2,1.4l-1.1-0.7l6.2-10.3l1.2,0.6c-0.5,1-0.8,1.8-0.8,2.3c0,0.5,0.3,1,1,1.5
		c0.7,0.5,1.5,1,2.4,1.6c0.9,0.5,1.6,0.8,1.9,1c3.2,1.7,6.2,2.8,8.8,3.5c2.8,0.8,6.1,1.2,9.9,1.2c7,0,12.3-1.5,16-4.6
		c2.4-2.1,3.6-4.4,3.6-7c0-5.6-4.6-8.7-13.7-9.1l-8.7-0.3c-4.1-0.1-7.6-0.4-10.4-0.8c-2.8-0.4-5.5-1.4-7.9-2.7
		c-2-1.1-3.5-2.7-4.7-4.7c-1.1-2-1.7-4.1-1.7-6.4c0-4.1,1.4-7.4,4.1-10c2.7-2.6,6.1-4.4,10.1-5.5c4-1.1,8.1-1.6,12.1-1.6
		c7.1,0,14.2,1.6,21.5,4.9c0.9,0.4,1.5,0.6,1.7,0.6c0.4,0,1.1-0.5,2-1.6L620.1,18.2z"/>
	<path class="st0" d="M673.7,20.1v46.2c0,1.1,0.2,1.9,0.6,2.4c0.4,0.5,1.1,0.9,2.1,1.2v1.4h-11.8v-1.4c1-0.2,1.7-0.6,2.1-1.1
		c0.4-0.5,0.5-1.3,0.5-2.4V20.1h-19.1c-1.1,0-1.9,0.2-2.4,0.5s-0.9,1.1-1.2,2.1h-1.3V12h1.3c0.3,1,0.6,1.7,1.2,2.1s1.3,0.5,2.4,0.5
		h44.8c1.1,0,1.9-0.2,2.4-0.5s0.9-1.1,1.2-2.1h1.3v10.7h-1.3c-0.2-1-0.6-1.7-1.2-2.1s-1.3-0.5-2.4-0.5H673.7z"/>
</g>
<g>
	<path class="st0" d="M181.4,89.9v37.3c0,1.1,0.2,1.9,0.6,2.4c0.4,0.5,1.1,0.9,2.2,1.2v1.1h-11.3v-1.1c1-0.3,1.8-0.7,2.1-1.2
		c0.4-0.5,0.5-1.3,0.5-2.4V89.9h-15.1c-1.1,0-1.9,0.2-2.4,0.6c-0.5,0.4-0.9,1.1-1.2,2.1h-1.1v-9.8h1.1c0.3,1,0.7,1.7,1.2,2.1
		c0.5,0.4,1.3,0.6,2.4,0.6h36.2c1.1,0,1.8-0.2,2.4-0.6c0.5-0.4,0.9-1.1,1.1-2h1.2v9.8h-1.2c-0.2-1-0.6-1.7-1.1-2.1
		c-0.5-0.4-1.3-0.6-2.4-0.6H181.4z"/>
	<path class="st0" d="M244.8,110.8v16.3c0,1.1,0.2,1.9,0.6,2.4c0.4,0.5,1.1,0.9,2.2,1.2v1.1h-11.3v-1.1c1-0.3,1.8-0.7,2.1-1.2
		c0.4-0.5,0.5-1.3,0.5-2.4v-37c0-1.1-0.2-1.9-0.5-2.4c-0.4-0.5-1.1-0.9-2.1-1.1v-1.2h27.6c2.7,0,5.2,0.2,7.2,0.6
		c2.1,0.4,3.9,1.2,5.6,2.4c1.5,1.1,2.7,2.5,3.6,4.2c0.8,1.7,1.3,3.5,1.3,5.5c0,7.3-4.4,11.5-13.2,12.4l11.6,18.4
		c0.6,1,1.8,1.7,3.3,1.9v1h-11.4v-1.1c1.1-0.3,1.6-0.6,1.6-1c0-0.2-0.3-0.9-0.9-2l-10.7-16.8H244.8z M244.8,106.3h17.7
		c4.2,0,7.5-0.4,9.8-1.3c2.3-0.9,3.4-3.1,3.4-6.6c0-1.2-0.3-2.4-0.8-3.6c-0.5-1.1-1.3-2.1-2.2-2.8c-1.9-1.3-5.1-1.9-9.6-1.9h-18.3
		V106.3z"/>
	<path class="st0" d="M352,118.7h-24.3l-3.6,7.8c-0.4,0.9-0.6,1.7-0.6,2.4c0.1,0.8,0.8,1.4,2.1,1.8v1.1h-11.4v-1.1
		c1.8-0.4,3.2-1.6,4.2-3.6l16-35c0.9-1.9,1.3-3.3,1.3-4c0-0.9-0.7-1.4-2.1-1.5v-1.2H347v1.2c-1.4,0.2-2,0.8-2,1.7
		c0,0.5,0.1,0.9,0.3,1.4c0.2,0.5,0.4,1,0.7,1.6c0.3,0.6,0.5,1.1,0.8,1.5l14.7,32.1c0.9,1.9,1.7,3.3,2.4,4.2c0.7,0.9,1.7,1.5,3,1.7
		v1.1h-12.1v-1.1c1.3-0.2,1.9-0.8,1.9-1.5c0-0.2,0-0.3-0.1-0.4c0-0.1-0.1-0.2-0.1-0.3s-0.1-0.2-0.1-0.3L352,118.7z M350,114.2
		l-10.1-22.7l-10.2,22.7H350z"/>
	<path class="st0" d="M446.1,88.8l-5.2,8.9l-1-0.6c0.2-0.8,0.3-1.3,0.3-1.4c0-0.8-0.3-1.4-1-1.9s-1.6-1-2.9-1.7c-4-2-8.4-3-13.3-3
		c-5.9,0-10.9,1.6-14.8,4.8c-4.4,3.6-6.6,8.6-6.6,14.9c0,2.8,0.7,5.4,2,8c1.3,2.6,3.1,4.7,5.4,6.5c3.8,3,8.5,4.5,14.2,4.5
		c2.7,0,5.4-0.5,8.1-1.4c2.7-0.9,5.1-2.2,7.1-3.9c0.4-0.3,0.8-0.6,1.2-0.9c0.4-0.3,0.7-0.6,1-1s0.5-0.7,0.5-1.1
		c0-0.3-0.1-0.7-0.3-1.2s-0.4-0.8-0.5-0.9l0.9-0.6l6.5,8.2l-0.8,0.7c-0.9-0.8-1.6-1.3-2-1.3c-0.3,0-0.7,0.2-1.1,0.5
		c-3,2.4-6.4,4.3-10,5.6c-3.6,1.3-7.4,1.9-11.2,1.9c-7.6,0-13.8-2-18.7-5.9c-2.6-2.2-4.7-4.8-6.2-8s-2.3-6.4-2.3-9.8
		c0-3.9,0.7-7.3,2.1-10.4s3.4-5.6,5.9-7.8s5.4-3.7,8.7-4.8c3.3-1.1,6.8-1.6,10.6-1.6c6.7,0,13.1,1.6,19.2,4.9
		c0.7,0.3,1.2,0.4,1.3,0.4c0.4,0,1.1-0.5,1.9-1.4L446.1,88.8z"/>
	<path class="st0" d="M493.4,113.9v13.2c0,1.1,0.2,1.9,0.6,2.4c0.4,0.5,1.1,0.9,2.2,1.2v1.1h-11.3v-1.1c1-0.3,1.8-0.7,2.1-1.2
		c0.4-0.5,0.5-1.3,0.5-2.4v-37c0-1.1-0.2-1.9-0.5-2.4c-0.4-0.5-1.1-0.9-2.1-1.1v-1.2h11.3v1.2c-1,0.2-1.8,0.6-2.1,1.1
		c-0.4,0.5-0.6,1.3-0.6,2.4v18.2l22.2-17.2c0.5-0.4,1-0.8,1.5-1.2s0.9-0.8,1.3-1.2c0.4-0.4,0.5-0.7,0.5-0.9c0-0.7-0.5-1.2-1.5-1.3
		v-1.2h13v1.2c-0.6,0-1.1,0.1-1.7,0.4c-0.6,0.3-1.1,0.6-1.5,0.9c-0.5,0.3-0.8,0.5-1,0.7l-18.5,14.4l20.5,26c0.8,1.1,1.9,1.6,3.1,1.7
		v1.1h-12.3v-1.1c0.2-0.1,0.5-0.1,0.8-0.2c0.3-0.1,0.5-0.2,0.7-0.3c0.2-0.1,0.3-0.3,0.3-0.5c0-0.4-0.5-1.2-1.4-2.4l-16.1-20.9
		L493.4,113.9z"/>
	<path class="st0" d="M576.2,110.1v17.1h28.7c1.1,0,1.9-0.2,2.4-0.5s0.9-1.1,1.1-2.1h1.2v9.8h-1.2c-0.2-1-0.6-1.7-1.1-2.1
		c-0.5-0.4-1.3-0.5-2.4-0.5h-37.3v-1.2c1-0.3,1.7-0.6,2.1-1.2c0.4-0.5,0.5-1.3,0.5-2.4v-37c0-1.1-0.2-1.9-0.5-2.4
		c-0.4-0.5-1.1-0.9-2.1-1.1v-1.1h37c1.1,0,1.9-0.2,2.4-0.6c0.5-0.4,0.9-1.1,1.1-2h1.1v9.8h-1.1c-0.2-1-0.6-1.7-1.1-2.1
		c-0.5-0.4-1.3-0.6-2.4-0.6h-28.4v15.7h18.1c1.1,0,1.9-0.2,2.4-0.6c0.5-0.4,0.9-1.1,1.1-2.1h1.2v9.8h-1.2c-0.2-1-0.6-1.7-1.1-2.1
		c-0.5-0.4-1.3-0.6-2.4-0.6H576.2z"/>
	<path class="st0" d="M655.3,110.8v16.3c0,1.1,0.2,1.9,0.6,2.4c0.4,0.5,1.1,0.9,2.2,1.2v1.1h-11.3v-1.1c1-0.3,1.8-0.7,2.1-1.2
		c0.4-0.5,0.5-1.3,0.5-2.4v-37c0-1.1-0.2-1.9-0.5-2.4c-0.4-0.5-1.1-0.9-2.1-1.1v-1.2h27.6c2.7,0,5.2,0.2,7.2,0.6
		c2.1,0.4,3.9,1.2,5.6,2.4c1.5,1.1,2.7,2.5,3.6,4.2c0.8,1.7,1.3,3.5,1.3,5.5c0,7.3-4.4,11.5-13.2,12.4l11.6,18.4
		c0.6,1,1.8,1.7,3.3,1.9v1h-11.4v-1.1c1.1-0.3,1.6-0.6,1.6-1c0-0.2-0.3-0.9-0.9-2l-10.7-16.8H655.3z M655.3,106.3H673
		c4.2,0,7.5-0.4,9.8-1.3c2.3-0.9,3.4-3.1,3.4-6.6c0-1.2-0.3-2.4-0.8-3.6c-0.5-1.1-1.3-2.1-2.2-2.8c-1.9-1.3-5.1-1.9-9.6-1.9h-18.3
		V106.3z"/>
</g>
<g id="g2832_2_">
	<path id="path2842_2_" class="st1" d="M785.9,18.3l-58.6,48.9v10.4l63.7,53.2l8.5-10.4c0,0-47.5-39.7-57.5-48
		c10-8.3,57.5-48,57.5-48L791,14L785.9,18.3"/>
	<path id="path2844_2_" class="st1" d="M833.9,18.3l-58.6,48.9l0,10.4l63.8,53.2l8.5-10.4c0,0-47.5-39.7-57.5-48
		c10-8.3,57.5-48,57.5-48L839,14L833.9,18.3"/>
</g>
<g id="g2832_3_">
	<path id="path2842_3_" class="st1" d="M70.2,17.1L65,12.8l-8.5,10.4c0,0,47.5,39.7,57.5,48c-10,8.3-57.5,48-57.5,48l8.5,10.4
		l63.7-53.2V66L70.2,17.1"/>
	<path id="path2844_3_" class="st1" d="M22.2,17l-5.1-4.3L8.6,23.2c0,0,47.5,39.7,57.5,48c-10,8.3-57.5,48-57.5,48l8.5,10.4
		l63.8-53.2l0-10.4L22.2,17"/>
</g>
</svg>
